<svg width="96" height="96" xmlns="http://www.w3.org/2000/svg" xmlns:xlink="http://www.w3.org/1999/xlink" xml:space="preserve" overflow="hidden"><g transform="translate(-488 -481)"><path d="M574.86 515.34C574.333 513.815 573.19 512.581 571.71 511.94 566.25 509.41 554.71 512.66 547.91 514.94 549.33 513.02 550.437 510.887 551.19 508.62 552.66 504.2 555.19 503.99 555.29 503.99 556.395 503.99 557.29 503.095 557.29 501.99 557.29 500.885 556.395 499.99 555.29 499.99 555.07 499.99 549.82 500.07 547.39 507.36 546.805 509.1 545.973 510.747 544.92 512.25 544.582 511.206 543.987 510.264 543.19 509.51 543.864 508.844 544.257 507.946 544.29 507 544.29 505.34 542.98 503.87 540.99 503L543.63 497.71C544.114 497.038 543.962 496.1 543.29 495.616 542.618 495.132 541.681 495.284 541.196 495.956 541.114 496.07 541.047 496.197 541 496.33L538.1 502.13C536.933 501.957 535.747 501.957 534.58 502.13L531.68 496.33C531.273 495.608 530.359 495.353 529.637 495.759 528.965 496.138 528.69 496.964 529 497.67L531.59 503C529.59 503.91 528.29 505.38 528.29 507 528.329 508.08 528.823 509.094 529.65 509.79 529.096 510.372 528.652 511.05 528.34 511.79 527.433 510.417 526.71 508.931 526.19 507.37 523.76 500.08 518.51 500 518.29 500 517.185 500 516.29 500.895 516.29 502 516.29 503.105 517.185 504 518.29 504 518.4 504 520.98 504.21 522.45 508.63 523.247 511.075 524.447 513.37 526 515.42 519.57 513.14 506.7 509.23 500.85 511.94 499.37 512.581 498.227 513.815 497.7 515.34 496.05 520.29 498.57 527.18 503.55 531.34 506.658 533.989 510.616 535.43 514.7 535.4 517.917 535.353 521.086 534.624 524 533.26 524 533.59 523.94 533.91 523.92 534.26L523.92 534.26C523.92 534.96 523.86 535.67 523.86 536.38 523.86 536.92 523.86 537.47 523.94 538.01L518.46 538.01 511.37 545.1C510.595 545.88 510.595 547.14 511.37 547.92 511.746 548.298 512.257 548.51 512.79 548.51 513.32 548.508 513.827 548.296 514.2 547.92L520.12 542 524.56 542C524.63 542.34 524.69 542.62 524.69 542.65 524.81 543.14 524.94 543.65 525.08 544.13L525.17 544.44C525.29 544.87 525.43 545.3 525.58 545.73 524.147 549.931 521.541 553.633 518.07 556.4 517.186 557.063 517.007 558.316 517.67 559.2 518.333 560.084 519.586 560.263 520.47 559.6 523.489 557.267 525.944 554.283 527.65 550.87 528.1 551.87 528.58 552.78 529.06 553.66L529.06 553.66C529.26 554.02 529.46 554.353 529.66 554.66L529.77 554.85C529.93 555.13 530.1 555.41 530.27 555.69L530.42 555.93 530.9 556.69 531.05 556.92 531.64 557.81 531.85 558.1 532.22 558.63 532.51 559.02 532.79 559.39 533.09 559.78 533.34 560.09 533.63 560.45 533.87 560.73 534.15 561.04C534.24 561.15 534.34 561.25 534.43 561.35 534.52 561.45 534.66 561.6 534.78 561.71L535.06 561.99 535.23 562.14 535.48 562.36 535.63 562.48 535.87 562.64 535.99 562.72 536.21 562.84 536.29 562.84C536.373 562.852 536.457 562.852 536.54 562.84L536.54 562.84C536.61 562.847 536.68 562.847 536.75 562.84L536.87 562.78C536.927 562.756 536.98 562.726 537.03 562.69L537.21 562.58 537.36 562.47 537.59 562.29C537.624 562.251 537.661 562.214 537.7 562.18 538.271 561.667 538.802 561.112 539.29 560.52L539.29 560.52 539.72 560 539.81 559.88 540.24 559.33 540.36 559.17 540.79 558.59 540.9 558.43 541.58 557.43 542 557 542.21 556.66C542.35 556.447 542.49 556.227 542.63 556L542.81 555.72 543.31 554.89 543.4 554.73C544.09 553.55 544.76 552.28 545.4 550.95 547.102 554.323 549.538 557.272 552.53 559.58 553.414 560.243 554.667 560.064 555.33 559.18 555.993 558.296 555.814 557.043 554.93 556.38 551.499 553.651 548.915 550.003 547.48 545.86 547.907 544.595 548.261 543.306 548.54 542L552.86 542 558.78 547.91C559.153 548.286 559.66 548.498 560.19 548.5 560.723 548.5 561.234 548.288 561.61 547.91 562.385 547.13 562.385 545.87 561.61 545.09L554.52 538 549.13 538C549.13 537.46 549.19 536.91 549.19 536.37 549.19 535.37 549.19 534.44 549.09 533.5 551.856 534.731 554.843 535.388 557.87 535.43 561.947 535.455 565.897 534.014 569 531.37 574 527.18 576.51 520.29 574.86 515.34ZM525.78 524.52C525.61 525 525.46 525.52 525.31 526 525.31 526.11 525.24 526.23 525.21 526.35 525.07 526.857 524.94 527.377 524.82 527.91 524.82 528.03 524.82 528.14 524.74 528.26L524.74 528.26 523.84 528.9C514.79 533.72 508.84 530.6 506.13 528.3 501.96 524.8 500.51 519.6 501.51 516.59 501.683 516.128 502.048 515.763 502.51 515.59 503.625 515.159 504.816 514.965 506.01 515.02 511.86 515.02 521.52 517.92 527.62 520.32L527.21 521.05 527.12 521.23C526.91 521.66 526.7 522.1 526.51 522.56L526.39 522.81C526.203 523.27 526.023 523.74 525.85 524.22 525.85 524.31 525.81 524.41 525.78 524.52ZM542.66 551.91C540.653 552.323 538.609 552.531 536.56 552.53 534.48 552.534 532.405 552.32 530.37 551.89 529.554 550.352 528.826 548.77 528.19 547.15 530.885 548.068 533.713 548.535 536.56 548.53 539.383 548.537 542.188 548.074 544.86 547.16 544.217 548.784 543.482 550.37 542.66 551.91ZM546.94 539.67C540.232 542.148 532.859 542.148 526.15 539.67 525.987 538.577 525.904 537.475 525.9 536.37 525.9 535.99 525.9 535.61 525.9 535.24 532.663 538.287 540.407 538.287 547.17 535.24 547.17 535.61 547.17 535.98 547.17 536.36 547.173 537.467 547.096 538.574 546.94 539.67ZM566.44 528.31C563.71 530.61 557.79 533.73 548.73 528.91L548.44 528.7C547.871 525.696 546.824 522.803 545.34 520.13 553 517.13 565.71 513.57 570.03 515.57 570.492 515.743 570.857 516.108 571.03 516.57 572.07 519.61 570.61 524.81 566.44 528.31Z"/></g></svg>